<?xml version="1.0" standalone="no"?>
<!DOCTYPE svg PUBLIC "-//W3C//DTD SVG 20010904//EN"
 "http://www.w3.org/TR/2001/REC-SVG-20010904/DTD/svg10.dtd">
<svg version="1.0" xmlns="http://www.w3.org/2000/svg"
 width="800.000000pt" height="619.000000pt" viewBox="0 0 800.000000 619.000000"
 preserveAspectRatio="xMidYMid meet">

<g transform="translate(0.000000,619.000000) scale(0.100000,-0.100000)"
fill="#000000" stroke="none">
<path d="M4017 4750 c-45 -12 -102 -41 -140 -72 l-29 -24 22 -278 c12 -153 19
-293 16 -310 -5 -26 -273 -536 -433 -825 l-35 -64 -22 44 c-15 28 -37 52 -62
66 l-39 23 -457 -3 c-447 -2 -457 -2 -485 -23 -15 -12 -37 -36 -48 -55 -20
-33 -20 -52 -20 -854 0 -805 0 -821 20 -855 12 -21 39 -44 65 -57 44 -23 48
-23 480 -23 432 0 436 0 480 23 56 28 80 73 80 149 0 32 2 58 4 58 3 0 25 -14
50 -31 62 -41 149 -76 227 -89 44 -7 278 -10 734 -8 l670 3 67 33 c131 64 201
178 202 329 1 75 3 83 24 92 12 6 46 32 74 58 94 88 136 225 104 343 l-15 55
49 43 c32 28 61 67 82 110 30 60 33 75 33 157 0 78 -4 98 -29 152 -15 34 -38
71 -50 82 l-22 21 35 72 c33 66 36 79 36 157 -1 67 -6 97 -23 134 -47 104
-127 175 -234 209 -54 16 -99 18 -474 18 -388 0 -414 1 -414 18 0 9 11 89 25
177 40 262 32 400 -34 570 -84 218 -247 368 -411 380 -36 2 -82 0 -103 -5z
m175 -161 c136 -70 258 -314 258 -520 0 -42 -18 -191 -40 -331 -22 -139 -40
-256 -40 -260 0 -4 226 -9 503 -10 493 -3 503 -3 542 -25 119 -64 160 -187
101 -301 -9 -18 -44 -54 -76 -79 -33 -25 -60 -49 -60 -52 0 -3 21 -17 47 -31
125 -66 172 -159 139 -273 -21 -73 -79 -126 -170 -157 l-67 -22 36 -46 c55
-72 68 -107 63 -179 -7 -110 -78 -181 -204 -204 -33 -6 -60 -12 -62 -13 -1 -2
12 -33 29 -70 63 -134 29 -248 -91 -312 -33 -18 -70 -19 -710 -19 -766 0 -732
-3 -860 83 -36 24 -77 50 -92 58 l-28 15 0 573 0 574 64 53 c64 54 67 58 296
480 126 235 237 446 245 469 19 54 19 165 0 385 -19 220 -19 214 8 225 41 17
125 11 169 -11z"/>
</g>
</svg>
